<svg xmlns="http://www.w3.org/2000/svg" width="18.5" height="18.506" viewBox="0 0 18.5 18.506">
  <path id="_9be2df2ebb8eb1e9673e81278bae0615" data-name="9be2df2ebb8eb1e9673e81278bae0615" d="M9.48.264A2.537,2.537,0,0,0,7.728,1l-.943.943H4.468a2.546,2.546,0,0,0-2.53,2.53V6.793L1,7.738a2.539,2.539,0,0,0,0,3.571l.937.943V14.57a2.546,2.546,0,0,0,2.53,2.53H6.785l.943.937a2.539,2.539,0,0,0,3.571,0l.945-.937H14.56a2.546,2.546,0,0,0,2.53-2.53V12.252l.943-.943a2.539,2.539,0,0,0,0-3.571l-.943-.945V4.477a2.546,2.546,0,0,0-2.53-2.53H12.245L11.3,1A2.52,2.52,0,0,0,9.481.264Zm.025,1.683a.833.833,0,0,1,.6.248L11.3,3.382a.841.841,0,0,0,.6.248H14.56a.835.835,0,0,1,.845.845V7.141a.841.841,0,0,0,.25.6l1.187,1.192a.825.825,0,0,1,0,1.187l-1.187,1.193a.841.841,0,0,0-.25.6V14.57a.835.835,0,0,1-.845.845H11.9a.842.842,0,0,0-.6.243l-1.192,1.192a.825.825,0,0,1-1.187,0L7.728,15.658a.841.841,0,0,0-.6-.243H4.468a.835.835,0,0,1-.845-.845V11.905a.841.841,0,0,0-.243-.6L2.188,10.116a.825.825,0,0,1,0-1.187L3.38,7.738a.841.841,0,0,0,.243-.6V4.476a.835.835,0,0,1,.845-.845H7.132a.841.841,0,0,0,.6-.248L8.922,2.2A.847.847,0,0,1,9.5,1.948Zm2.516,4.2a.841.841,0,0,0-.579.255L6.392,11.452a.844.844,0,1,0,1.193,1.193l5.051-5.051a.841.841,0,0,0-.614-1.447Zm-5.031.01A.841.841,0,1,0,7.832,7,.841.841,0,0,0,6.99,6.156Zm5.049,5.049a.841.841,0,1,0,.841.841A.841.841,0,0,0,12.039,11.205Z" transform="translate(-0.267 -0.264)" fill="#3d3be7"/>
</svg>
