<svg xmlns="http://www.w3.org/2000/svg" width="28.861" height="29.449" viewBox="0 0 28.861 29.449">
  <g id="Group_247" data-name="Group 247" transform="translate(-113.518 -742.5)">
    <path id="path924-5" d="M63.035,168.822a12.456,12.456,0,0,0-.314-3.012H48.9v5.464h8.113A7.175,7.175,0,0,1,54,176.051l-.025.186,4.37,3.384.3.029a14.39,14.39,0,0,0,4.385-10.83" transform="translate(79.343 588.732)" fill="#4c74c2"/>
    <path id="path926-5" d="M52.593,181.646a14.023,14.023,0,0,0,9.751-3.566l-4.65-3.6a8.69,8.69,0,0,1-5.1,1.476,8.865,8.865,0,0,1-8.378-6.121l-.172.015L39.5,173.367l-.059.167a14.707,14.707,0,0,0,13.155,8.113" transform="translate(75.65 590.303)" fill="#37b74f"/>
    <path id="path928-5" d="M44.656,172.53a8.99,8.99,0,0,1-.49-2.914,9.507,9.507,0,0,1,.471-2.909l0-.2-4.6-3.576-.152.074a14.7,14.7,0,0,0,0,13.219l4.777-3.7" transform="translate(75.209 587.61)" fill="#f9b119"/>
    <path id="path930-9" d="M52.593,162.844a8.16,8.16,0,0,1,5.69,2.193l4.159-4.056a14.152,14.152,0,0,0-9.849-3.831,14.712,14.712,0,0,0-13.155,8.118l4.758,3.7a8.909,8.909,0,0,1,8.4-6.121" transform="translate(75.65 585.351)" fill="#ef3036"/>
  </g>
</svg>
