<svg xmlns="http://www.w3.org/2000/svg" width="24" height="24" viewBox="0 0 24 24">
  <path id="_44974094040447a73c9f29351d366872" data-name="44974094040447a73c9f29351d366872" d="M13.21.747a1.141,1.141,0,0,0-1.424,0L.948,9.193a1.151,1.151,0,0,0-.387,1.293,1.168,1.168,0,0,0,1.1.782H3.6V23.336A1.16,1.16,0,0,0,4.757,24.5h4.73a1.16,1.16,0,0,0,1.161-1.161v-3.6a1.85,1.85,0,1,1,3.7,0v3.6A1.16,1.16,0,0,0,15.509,24.5h4.73A1.16,1.16,0,0,0,21.4,23.336V11.268h1.935a1.168,1.168,0,0,0,1.1-.782,1.151,1.151,0,0,0-.387-1.293Z" transform="translate(-0.498 -0.498)" fill="#3d3be7"/>
</svg>
