<svg xmlns="http://www.w3.org/2000/svg" width="17.788" height="17.788" viewBox="0 0 17.788 17.788">
  <g id="Group_41416" data-name="Group 41416" transform="translate(-383.712 -669.787)">
    <path id="circle1332" d="M10.894,292.65a8.894,8.894,0,1,0,8.894,8.894A8.907,8.907,0,0,0,10.894,292.65Zm0,1.779a7.115,7.115,0,1,1-7.115,7.115A7.1,7.1,0,0,1,10.894,294.429Z" transform="translate(381.712 377.137)" fill="#3d3be7"/>
    <path id="path1340" d="M11.889,299.65a.889.889,0,0,0-.889.889v6.226a.889.889,0,0,0,1.779,0v-6.226A.889.889,0,0,0,11.889,299.65Z" transform="translate(380.717 376.363)" fill="#3d3be7"/>
    <path id="path1342" d="M12.779,297.539a.889.889,0,1,1-.889-.889A.889.889,0,0,1,12.779,297.539Z" transform="translate(380.717 376.695)" fill="#3d3be7"/>
  </g>
</svg>
