<svg xmlns="http://www.w3.org/2000/svg" xmlns:xlink="http://www.w3.org/1999/xlink" width="31.015" height="31.015" viewBox="0 0 31.015 31.015">
  <defs>
    <radialGradient id="radial-gradient" cx="0.133" cy="1.005" r="1.305" gradientUnits="objectBoundingBox">
      <stop offset="0.09" stop-color="#fa8f21"/>
      <stop offset="0.78" stop-color="#d82d7e"/>
    </radialGradient>
  </defs>
  <path id="instagram" d="M10.34,15.508a5.169,5.169,0,1,1,5.169,5.17,5.169,5.169,0,0,1-5.169-5.17m-2.795,0a7.963,7.963,0,1,0,7.963-7.963,7.963,7.963,0,0,0-7.963,7.963M21.926,7.229a1.861,1.861,0,1,0,1.862-1.86h0a1.862,1.862,0,0,0-1.861,1.86M9.243,28.131a8.571,8.571,0,0,1-2.88-.533,4.82,4.82,0,0,1-1.784-1.16,4.785,4.785,0,0,1-1.16-1.783,8.563,8.563,0,0,1-.533-2.88c-.075-1.635-.09-2.126-.09-6.267s.016-4.631.09-6.267a8.627,8.627,0,0,1,.533-2.88,4.82,4.82,0,0,1,1.16-1.784,4.78,4.78,0,0,1,1.784-1.16,8.564,8.564,0,0,1,2.88-.533c1.635-.075,2.126-.09,6.265-.09s4.631.016,6.267.09a8.628,8.628,0,0,1,2.88.533,4.8,4.8,0,0,1,1.784,1.16A4.8,4.8,0,0,1,27.6,6.361a8.563,8.563,0,0,1,.533,2.88c.075,1.636.09,2.126.09,6.267s-.015,4.631-.09,6.267a8.6,8.6,0,0,1-.533,2.88A5.135,5.135,0,0,1,24.656,27.6a8.564,8.564,0,0,1-2.88.533c-1.635.075-2.126.09-6.267.09s-4.631-.015-6.265-.09M9.115.094A11.372,11.372,0,0,0,5.35.814,7.607,7.607,0,0,0,2.6,2.6,7.577,7.577,0,0,0,.814,5.35a11.374,11.374,0,0,0-.72,3.764C.017,10.768,0,11.3,0,15.508s.017,4.74.094,6.394a11.373,11.373,0,0,0,.72,3.764A7.581,7.581,0,0,0,2.6,28.412,7.625,7.625,0,0,0,5.35,30.2a11.382,11.382,0,0,0,3.764.72c1.654.075,2.182.094,6.394.094s4.74-.017,6.394-.094a11.375,11.375,0,0,0,3.764-.72A7.929,7.929,0,0,0,30.2,25.665a11.342,11.342,0,0,0,.72-3.764c.075-1.655.093-2.182.093-6.394s-.017-4.74-.093-6.394A11.37,11.37,0,0,0,30.2,5.35,7.626,7.626,0,0,0,28.414,2.6,7.589,7.589,0,0,0,25.668.814,11.357,11.357,0,0,0,21.9.094C20.25.019,19.721,0,15.51,0s-4.741.017-6.4.094" fill="url(#radial-gradient)"/>
</svg>
