<svg xmlns="http://www.w3.org/2000/svg" width="17.993" height="17.992" viewBox="0 0 17.993 17.992">
  <g id="upload-file" transform="translate(17.994) rotate(90)">
    <path id="Path_2053" data-name="Path 2053" d="M5.062,4.5H7.311v9.558a.562.562,0,0,0,.562.562H9a.562.562,0,0,0,.562-.562V4.5H11.81a.562.562,0,0,0,.4-.96L8.834.164a.562.562,0,0,0-.8,0L4.664,3.538a.562.562,0,0,0,.4.96Z" transform="translate(0.56 0.001)" fill="#3d3be7"/>
    <path id="Path_2054" data-name="Path 2054" d="M16.859,6.985A1.125,1.125,0,0,0,15.743,6H12.37V8.249h2.381L15.594,15H2.4l.843-6.747H5.623V6H2.249a1.125,1.125,0,0,0-1.116.985l-1.125,9a1.125,1.125,0,0,0,1.116,1.264H16.868a1.125,1.125,0,0,0,1.116-1.264Z" transform="translate(0 0.748)" fill="#3d3be7"/>
  </g>
</svg>
