<svg xmlns="http://www.w3.org/2000/svg" width="36.389" height="30.105" viewBox="0 0 36.389 30.105">
  <g id="Group_41449" data-name="Group 41449" transform="translate(-354.633 -417.976)">
    <path id="moon" d="M12.136,21.633h-.1a9.723,9.723,0,0,1-5.587-1.822c-.288-.178,1.741-3.014-1.688-7.032C2.6,10.951,2.007,11.66,1.974,10.971c-.119-2.162.8-4.1,2.6-6.173A9.944,9.944,0,0,1,8.5,2.109a.967.967,0,0,1,1.276,1.2,8.246,8.246,0,0,0,1.9,8.648,8.314,8.314,0,0,0,8.668,1.9A.982.982,0,0,1,21.6,15.125a9.973,9.973,0,0,1-2.3,3.563,10.091,10.091,0,0,1-7.166,2.945Z" transform="translate(368.341 416.957)" fill="none" stroke="#4a4b53" stroke-width="2"/>
    <path id="Path_44220" data-name="Path 44220" d="M12.186-44.883a1.339,1.339,0,0,1,1.367-1.367,1.339,1.339,0,0,1,1.367,1.367v1.367a1.339,1.339,0,0,1-1.367,1.367,1.339,1.339,0,0,1-1.367-1.367Zm-8.2,9.569a1.339,1.339,0,0,1,1.367,1.367,1.339,1.339,0,0,1-1.367,1.367H2.617A1.339,1.339,0,0,1,1.25-33.947a1.339,1.339,0,0,1,1.367-1.367Zm3.5-5.951a1.339,1.339,0,0,1,0,1.933,1.339,1.339,0,0,1-1.933,0L4.584-40.3a1.339,1.339,0,0,1,0-1.934,1.339,1.339,0,0,1,1.934,0l.966.967ZM21.838-26.911a1.339,1.339,0,0,1,0,1.933,1.339,1.339,0,0,1-1.933,0l-.966-.967a1.339,1.339,0,0,1,0-1.933,1.339,1.339,0,0,1,1.933,0ZM7.2-24.978a1.339,1.339,0,0,1-1.933,0,1.339,1.339,0,0,1,0-1.933l.966-.967a1.339,1.339,0,0,1,1.933,0,1.339,1.339,0,0,1,0,1.933Zm4.984.6a1.339,1.339,0,0,1,1.367-1.367,1.339,1.339,0,0,1,1.367,1.367v1.367a1.339,1.339,0,0,1-1.367,1.367,1.339,1.339,0,0,1-1.367-1.367Zm8.2-9.569a6.836,6.836,0,0,0-6.835-6.835,6.835,6.835,0,0,0-6.835,6.835,6.836,6.836,0,0,0,6.835,6.835,6.836,6.836,0,0,0,6.835-6.835" transform="translate(354.383 468.724)" fill="none" stroke="#4a4b53" stroke-width="2"/>
  </g>
</svg>
