<svg xmlns="http://www.w3.org/2000/svg" width="20.778" height="24.445" viewBox="0 0 20.778 24.445">
  <g id="Group_41398" data-name="Group 41398" transform="translate(-385 -46)">
    <path id="_4bd5fc9d2d5e697e6c82f50633a4705e" data-name="4bd5fc9d2d5e697e6c82f50633a4705e" d="M10.434,0c3.783,0,7.687,2.738,8.092,6.7.066.815,0,1.662.066,2.488a6.145,6.145,0,0,0,1.432,2.868,4.469,4.469,0,0,1,.754,2.249h0v.25a4.47,4.47,0,0,1-1.094,2.955A5.48,5.48,0,0,1,16.24,19.22a46.094,46.094,0,0,1-11.733,0,5.481,5.481,0,0,1-3.488-1.706A4.4,4.4,0,0,1,0,14.559v-.25A4.576,4.576,0,0,1,.735,12.06,6.265,6.265,0,0,0,2.189,9.192c.066-.826,0-1.662.066-2.488C2.67,2.738,6.5,0,10.324,0h.109Z" transform="translate(385 46)" fill="#b6b7b7"/>
    <path id="_4bd5fc9d2d5e697e6c82f50633a4705e-2" data-name="4bd5fc9d2d5e697e6c82f50633a4705e" d="M11.557,20.1a4.243,4.243,0,0,1,1.75.435h.033a1.082,1.082,0,0,1,.175,1.5,3.767,3.767,0,0,1-2.832,1.6,4.5,4.5,0,0,1-3.28-.9,1.986,1.986,0,0,1-.853-1.423c0-.608.569-.891,1.093-1.01a9.118,9.118,0,0,1,1.87-.2h2.045Z" transform="translate(385.255 46.782)" fill="#b6b7b7"/>
  </g>
</svg>
