<svg xmlns="http://www.w3.org/2000/svg" width="20.475" height="25.594" viewBox="0 0 20.475 25.594">
  <path id="_27e06fbd92f13d40bb41991bcd741a47" data-name="27e06fbd92f13d40bb41991bcd741a47" d="M7.484,17.34a34.458,34.458,0,0,1,5.535,0,22.576,22.576,0,0,1,2.989.376c2.137.433,3.532,1.139,4.129,2.277a3.151,3.151,0,0,1,0,2.835c-.6,1.139-1.937,1.89-4.152,2.277A21.458,21.458,0,0,1,13,25.491a25.483,25.483,0,0,1-2.8.1H8.5a8.073,8.073,0,0,0-1.03-.068,20.461,20.461,0,0,1-2.989-.376C2.347,24.74.952,24.011.355,22.873A3.122,3.122,0,0,1,0,21.438a3.088,3.088,0,0,1,.343-1.446c.587-1.139,1.982-1.879,4.141-2.277A21.864,21.864,0,0,1,7.484,17.34ZM10.241,0a6.817,6.817,0,0,1,6.72,6.911,6.817,6.817,0,0,1-6.72,6.911,6.817,6.817,0,0,1-6.72-6.911A6.817,6.817,0,0,1,10.241,0Z" fill="#b6b7b7"/>
</svg>
