<svg xmlns="http://www.w3.org/2000/svg" width="19.5" height="19.5" viewBox="0 0 19.5 19.5">
  <path id="_27af93adf277b1da883dd474e423e424" data-name="27af93adf277b1da883dd474e423e424" d="M22.384,17.109l-1.741-1.741a2.787,2.787,0,0,0-3.908-.017,1.7,1.7,0,0,1-2.16.211A11.892,11.892,0,0,1,11.3,12.292a1.726,1.726,0,0,1,.225-2.168,2.787,2.787,0,0,0-.025-3.9L9.757,4.486a2.781,2.781,0,0,0-3.926,0l-.5.5C2.717,7.6,2.913,13.091,8.347,18.522c3.277,3.277,6.575,4.65,9.249,4.65a5.936,5.936,0,0,0,4.288-1.631l.5-.5A2.78,2.78,0,0,0,22.384,17.109Zm-1.119,2.81-.5.5c-2.058,2.058-6.6,1.682-11.3-3.018S4.389,8.159,6.447,6.1l.5-.5a1.2,1.2,0,0,1,1.688,0l1.741,1.741a1.2,1.2,0,0,1,.017,1.67,3.309,3.309,0,0,0-.42,4.146,13.463,13.463,0,0,0,3.73,3.725,3.307,3.307,0,0,0,4.14-.409,1.2,1.2,0,0,1,1.676.01l1.741,1.741a1.2,1.2,0,0,1,.007,1.7Z" transform="translate(-3.698 -3.675)" fill="#3d3be7"/>
</svg>
