<svg xmlns="http://www.w3.org/2000/svg" width="20.007" height="20.033" viewBox="0 0 20.007 20.033">
  <path id="_19213c82db4dc9de9b9816e580f5dd6b" data-name="19213c82db4dc9de9b9816e580f5dd6b" d="M18,14a4,4,0,0,0-3.08,1.48l-5.1-2.35a3.64,3.64,0,0,0,0-2.26l5.1-2.35A4,4,0,1,0,14,6a4.17,4.17,0,0,0,.07.71L8.79,9.14a4,4,0,1,0,0,5.72l5.28,2.43A4.17,4.17,0,0,0,14,18a4,4,0,1,0,4-4ZM18,4a2,2,0,1,1-2,2A2,2,0,0,1,18,4ZM6,14a2,2,0,1,1,2-2A2,2,0,0,1,6,14Zm12,6a2,2,0,1,1,2-2A2,2,0,0,1,18,20Z" transform="translate(-1.993 -1.967)" fill="#3d3be7"/>
</svg>
