<svg xmlns="http://www.w3.org/2000/svg" width="21.002" height="20.077" viewBox="0 0 21.002 20.077">
  <path id="_6c8a01acce8d142c65301ac8f47dc0e1" data-name="6c8a01acce8d142c65301ac8f47dc0e1" d="M10.214.441,12.53,5.1a.8.8,0,0,0,.6.437l5.185.749a.8.8,0,0,1,.528.307.769.769,0,0,1-.084,1.031L15,11.259a.76.76,0,0,0-.226.7l.9,5.128a.786.786,0,0,1-.652.892.862.862,0,0,1-.516-.08L9.888,15.478a.779.779,0,0,0-.742,0L4.494,17.912a.811.811,0,0,1-1.077-.33.792.792,0,0,1-.081-.5l.9-5.128a.787.787,0,0,0-.226-.7L.232,7.621a.786.786,0,0,1,0-1.115.91.91,0,0,1,.452-.223L5.87,5.534a.813.813,0,0,0,.6-.437L8.784.441a.784.784,0,0,1,.458-.4.8.8,0,0,1,.61.044A.817.817,0,0,1,10.214.441Z" transform="translate(1 1.005)" fill="none" stroke="#3d3be7" stroke-linecap="round" stroke-linejoin="round" stroke-width="2" fill-rule="evenodd"/>
</svg>
