<svg xmlns="http://www.w3.org/2000/svg" xmlns:xlink="http://www.w3.org/1999/xlink" width="19.755" height="19.755" viewBox="0 0 19.755 19.755">
  <defs>
    <clipPath id="clip-path">
      <path id="Path_44215" data-name="Path 44215" d="M0-47.5H19.755v19.755H0Z"/>
    </clipPath>
  </defs>
  <g id="da02fd7b56e7b866fd5b818157d06dfa" transform="translate(0 47.5)" clip-path="url(#clip-path)">
    <path id="Path_44214" data-name="Path 44214" d="M9.568-45.21a1.018,1.018,0,0,1,1.04-1.04,1.018,1.018,0,0,1,1.04,1.04v1.04a1.018,1.018,0,0,1-1.04,1.04,1.018,1.018,0,0,1-1.04-1.04Zm9.358,7.278a1.018,1.018,0,0,1,1.04,1.04,1.018,1.018,0,0,1-1.04,1.04h-1.04a1.018,1.018,0,0,1-1.04-1.04,1.018,1.018,0,0,1,1.04-1.04Zm-15.6,0a1.018,1.018,0,0,1,1.04,1.04,1.018,1.018,0,0,1-1.04,1.04H2.29a1.018,1.018,0,0,1-1.04-1.04,1.018,1.018,0,0,1,1.04-1.04Zm2.662-4.526a1.018,1.018,0,0,1,0,1.47,1.018,1.018,0,0,1-1.47,0l-.736-.735a1.019,1.019,0,0,1,0-1.471,1.019,1.019,0,0,1,1.471,0l.735.736ZM16.909-31.541a1.018,1.018,0,0,1,0,1.47,1.018,1.018,0,0,1-1.47,0l-.735-.735a1.018,1.018,0,0,1,0-1.47,1.018,1.018,0,0,1,1.47,0Zm-.215-9.447a1.018,1.018,0,0,1-1.47,0,1.018,1.018,0,0,1,0-1.47l.735-.735a1.018,1.018,0,0,1,1.47,0,1.018,1.018,0,0,1,0,1.47ZM5.777-30.071a1.018,1.018,0,0,1-1.47,0,1.018,1.018,0,0,1,0-1.47l.735-.735a1.018,1.018,0,0,1,1.47,0,1.018,1.018,0,0,1,0,1.47Zm3.791.457a1.018,1.018,0,0,1,1.04-1.04,1.018,1.018,0,0,1,1.04,1.04v1.04a1.018,1.018,0,0,1-1.04,1.04,1.018,1.018,0,0,1-1.04-1.04Zm6.239-7.278a5.2,5.2,0,0,0-5.2-5.2,5.2,5.2,0,0,0-5.2,5.2,5.2,5.2,0,0,0,5.2,5.2,5.2,5.2,0,0,0,5.2-5.2" transform="translate(-0.73 -0.73)" fill="#ffac33"/>
  </g>
</svg>
